<mxfile host="65bd71144e" modified="2020-11-02T10:11:05.943Z" agent="5.0 (Macintosh; Intel Mac OS X 10_15_7) AppleWebKit/537.36 (KHTML, like Gecko) Code/1.50.1 Chrome/83.0.4103.122 Electron/9.2.1 Safari/537.36" version="13.6.5" etag="mJEiQ8pfMOVaz1QalPiO">
    <diagram id="kR3byZoMU1B6a6LsBj0Q" name="ページ1">
        <mxGraphModel dx="1126" dy="749" grid="1" gridSize="10" guides="1" tooltips="1" connect="1" arrows="1" fold="1" page="1" pageScale="1" pageWidth="827" pageHeight="1169" math="0" shadow="0">
            <root>
                <mxCell id="0"/>
                <mxCell id="1" parent="0"/>
                <mxCell id="6" value="Todo App" style="swimlane;" vertex="1" parent="1">
                    <mxGeometry x="24" y="40" width="800" height="400" as="geometry"/>
                </mxCell>
                <mxCell id="22" value="TodoFilter" style="swimlane;fontStyle=1;align=center;verticalAlign=top;childLayout=stackLayout;horizontal=1;startSize=26;horizontalStack=0;resizeParent=1;resizeParentMax=0;resizeLast=0;collapsible=1;marginBottom=0;" vertex="1" parent="6">
                    <mxGeometry x="305" y="80" width="230" height="130" as="geometry"/>
                </mxCell>
                <mxCell id="23" value="- filtereEnable: Boolean&#10;- doneFilter: Boolean" style="text;strokeColor=none;fillColor=none;align=left;verticalAlign=top;spacingLeft=4;spacingRight=4;overflow=hidden;rotatable=0;points=[[0,0.5],[1,0.5]];portConstraint=eastwest;" vertex="1" parent="22">
                    <mxGeometry y="26" width="230" height="54" as="geometry"/>
                </mxCell>
                <mxCell id="24" value="" style="line;strokeWidth=1;fillColor=none;align=left;verticalAlign=middle;spacingTop=-1;spacingLeft=3;spacingRight=3;rotatable=0;labelPosition=right;points=[];portConstraint=eastwest;" vertex="1" parent="22">
                    <mxGeometry y="80" width="230" height="8" as="geometry"/>
                </mxCell>
                <mxCell id="25" value="- filter(boolean, boolean): JSX.Element&#10;-  viewItem(): JSX.Element" style="text;strokeColor=none;fillColor=none;align=left;verticalAlign=top;spacingLeft=4;spacingRight=4;overflow=hidden;rotatable=0;points=[[0,0.5],[1,0.5]];portConstraint=eastwest;" vertex="1" parent="22">
                    <mxGeometry y="88" width="230" height="42" as="geometry"/>
                </mxCell>
                <mxCell id="18" value="TodoList" style="swimlane;fontStyle=1;align=center;verticalAlign=top;childLayout=stackLayout;horizontal=1;startSize=26;horizontalStack=0;resizeParent=1;resizeParentMax=0;resizeLast=0;collapsible=1;marginBottom=0;" vertex="1" parent="6">
                    <mxGeometry x="40" y="80" width="200" height="90" as="geometry"/>
                </mxCell>
                <mxCell id="19" value="- todoList: TodoItem[]" style="text;strokeColor=none;fillColor=none;align=left;verticalAlign=top;spacingLeft=4;spacingRight=4;overflow=hidden;rotatable=0;points=[[0,0.5],[1,0.5]];portConstraint=eastwest;" vertex="1" parent="18">
                    <mxGeometry y="26" width="200" height="26" as="geometry"/>
                </mxCell>
                <mxCell id="20" value="" style="line;strokeWidth=1;fillColor=none;align=left;verticalAlign=middle;spacingTop=-1;spacingLeft=3;spacingRight=3;rotatable=0;labelPosition=right;points=[];portConstraint=eastwest;" vertex="1" parent="18">
                    <mxGeometry y="52" width="200" height="8" as="geometry"/>
                </mxCell>
                <mxCell id="21" value="- add(): void&#10;" style="text;strokeColor=none;fillColor=none;align=left;verticalAlign=top;spacingLeft=4;spacingRight=4;overflow=hidden;rotatable=0;points=[[0,0.5],[1,0.5]];portConstraint=eastwest;" vertex="1" parent="18">
                    <mxGeometry y="60" width="200" height="30" as="geometry"/>
                </mxCell>
                <mxCell id="48" value="1" style="endArrow=open;html=1;endSize=12;startArrow=diamondThin;startSize=14;startFill=0;edgeStyle=orthogonalEdgeStyle;align=left;verticalAlign=bottom;exitX=0.48;exitY=1;exitDx=0;exitDy=0;exitPerimeter=0;" edge="1" parent="6" source="21" target="43">
                    <mxGeometry x="0.0476" y="21" relative="1" as="geometry">
                        <mxPoint x="356" y="160" as="sourcePoint"/>
                        <mxPoint x="516" y="160" as="targetPoint"/>
                        <mxPoint x="-15" y="-20" as="offset"/>
                    </mxGeometry>
                </mxCell>
                <mxCell id="36" value="TodoCard" style="swimlane;fontStyle=1;align=center;verticalAlign=top;childLayout=stackLayout;horizontal=1;startSize=26;horizontalStack=0;resizeParent=1;resizeParentMax=0;resizeLast=0;collapsible=1;marginBottom=0;" vertex="1" parent="6">
                    <mxGeometry x="576" y="70" width="200" height="130" as="geometry"/>
                </mxCell>
                <mxCell id="67" value="&amp;nbsp;- TextField: JSX.Element&lt;br&gt;&amp;nbsp;- CheckBox: JSX.Element&lt;br&gt;&amp;nbsp;- Button: JSX.Element&amp;nbsp;" style="text;html=1;align=left;verticalAlign=middle;resizable=0;points=[];autosize=1;" vertex="1" parent="36">
                    <mxGeometry y="26" width="200" height="50" as="geometry"/>
                </mxCell>
                <mxCell id="38" value="" style="line;strokeWidth=1;fillColor=none;align=left;verticalAlign=middle;spacingTop=-1;spacingLeft=3;spacingRight=3;rotatable=0;labelPosition=right;points=[];portConstraint=eastwest;" vertex="1" parent="36">
                    <mxGeometry y="76" width="200" height="4" as="geometry"/>
                </mxCell>
                <mxCell id="68" value="&amp;nbsp;- TextFiledOnChange(event): void&lt;br&gt;&amp;nbsp;- CheckBoxOnChange(event): void&lt;br&gt;&amp;nbsp;- ButtonOnClick(event): void" style="text;html=1;align=left;verticalAlign=top;resizable=0;points=[];autosize=1;horizontal=1;" vertex="1" parent="36">
                    <mxGeometry y="80" width="200" height="50" as="geometry"/>
                </mxCell>
                <mxCell id="50" value="&lt;&lt;Interface&gt;&gt;&#10;TodoItemAction" style="swimlane;fontStyle=1;align=center;verticalAlign=top;childLayout=stackLayout;horizontal=1;startSize=40;horizontalStack=0;resizeParent=1;resizeParentMax=0;resizeLast=0;collapsible=1;marginBottom=0;" vertex="1" parent="6">
                    <mxGeometry x="320" y="258" width="200" height="120" as="geometry"/>
                </mxCell>
                <mxCell id="52" value="" style="line;strokeWidth=1;fillColor=none;align=left;verticalAlign=middle;spacingTop=-1;spacingLeft=3;spacingRight=3;rotatable=0;labelPosition=right;points=[];portConstraint=eastwest;" vertex="1" parent="50">
                    <mxGeometry y="40" width="200" height="8" as="geometry"/>
                </mxCell>
                <mxCell id="53" value="+ delete(id): void&#10;+ updateTitle(int, String): String&#10;+ done(id): void&#10;+ cancell(id): void" style="text;strokeColor=none;fillColor=none;align=left;verticalAlign=top;spacingLeft=4;spacingRight=4;overflow=hidden;rotatable=0;points=[[0,0.5],[1,0.5]];portConstraint=eastwest;" vertex="1" parent="50">
                    <mxGeometry y="48" width="200" height="72" as="geometry"/>
                </mxCell>
                <mxCell id="43" value="TodoItem" style="swimlane;fontStyle=1;align=center;verticalAlign=top;childLayout=stackLayout;horizontal=1;startSize=30;horizontalStack=0;resizeParent=1;resizeParentMax=0;resizeLast=0;collapsible=1;marginBottom=0;" vertex="1" parent="6">
                    <mxGeometry x="40" y="280" width="200" height="88" as="geometry"/>
                </mxCell>
                <mxCell id="44" value="+ id: int&#10;+ title: String&#10;+ compleated: Boolean " style="text;strokeColor=none;fillColor=none;align=left;verticalAlign=top;spacingLeft=4;spacingRight=4;overflow=hidden;rotatable=0;points=[[0,0.5],[1,0.5]];portConstraint=eastwest;" vertex="1" parent="43">
                    <mxGeometry y="30" width="200" height="50" as="geometry"/>
                </mxCell>
                <mxCell id="45" value="" style="line;strokeWidth=1;fillColor=none;align=left;verticalAlign=middle;spacingTop=-1;spacingLeft=3;spacingRight=3;rotatable=0;labelPosition=right;points=[];portConstraint=eastwest;" vertex="1" parent="43">
                    <mxGeometry y="80" width="200" height="8" as="geometry"/>
                </mxCell>
                <mxCell id="56" value="" style="endArrow=block;dashed=1;endFill=0;endSize=12;html=1;exitX=1;exitY=0.5;exitDx=0;exitDy=0;entryX=0.5;entryY=0;entryDx=0;entryDy=0;" edge="1" parent="6" source="21" target="50">
                    <mxGeometry width="160" relative="1" as="geometry">
                        <mxPoint x="356" y="270" as="sourcePoint"/>
                        <mxPoint x="516" y="270" as="targetPoint"/>
                        <Array as="points">
                            <mxPoint x="240" y="230"/>
                            <mxPoint x="420" y="230"/>
                        </Array>
                    </mxGeometry>
                </mxCell>
                <mxCell id="57" value="Use" style="endArrow=open;endSize=12;dashed=1;html=1;entryX=0.5;entryY=1;entryDx=0;entryDy=0;" edge="1" parent="6" target="43">
                    <mxGeometry width="160" relative="1" as="geometry">
                        <mxPoint x="680" y="202" as="sourcePoint"/>
                        <mxPoint x="516" y="270" as="targetPoint"/>
                        <Array as="points">
                            <mxPoint x="680" y="390"/>
                            <mxPoint x="140" y="390"/>
                        </Array>
                    </mxGeometry>
                </mxCell>
                <mxCell id="59" value="Use" style="endArrow=open;endSize=12;dashed=1;html=1;exitX=1;exitY=0.5;exitDx=0;exitDy=0;entryX=0.005;entryY=0.222;entryDx=0;entryDy=0;entryPerimeter=0;" edge="1" parent="6" source="19" target="23">
                    <mxGeometry width="160" relative="1" as="geometry">
                        <mxPoint x="356" y="270" as="sourcePoint"/>
                        <mxPoint x="516" y="270" as="targetPoint"/>
                    </mxGeometry>
                </mxCell>
                <mxCell id="63" value="1" style="endArrow=open;html=1;endSize=12;startArrow=diamondThin;startSize=14;startFill=1;edgeStyle=orthogonalEdgeStyle;align=left;verticalAlign=bottom;exitX=1;exitY=0.5;exitDx=0;exitDy=0;entryX=0;entryY=0.5;entryDx=0;entryDy=0;" edge="1" parent="6" source="23" target="36">
                    <mxGeometry x="-0.4483" y="13" relative="1" as="geometry">
                        <mxPoint x="356" y="270" as="sourcePoint"/>
                        <mxPoint x="516" y="270" as="targetPoint"/>
                        <mxPoint as="offset"/>
                    </mxGeometry>
                </mxCell>
                <mxCell id="58" value="Use" style="endArrow=open;endSize=12;dashed=1;html=1;exitX=0.25;exitY=1;exitDx=0;exitDy=0;" edge="1" parent="1" source="36">
                    <mxGeometry width="160" relative="1" as="geometry">
                        <mxPoint x="380" y="310" as="sourcePoint"/>
                        <mxPoint x="550" y="390" as="targetPoint"/>
                        <Array as="points">
                            <mxPoint x="650" y="390"/>
                        </Array>
                    </mxGeometry>
                </mxCell>
            </root>
        </mxGraphModel>
    </diagram>
</mxfile>